<svg xmlns="http://www.w3.org/2000/svg" viewBox="0 0 1438.14 356.32"><defs><style>.cls-1{fill:#00acff;}.cls-2{fill:#fff;}</style></defs><g id="Layer_2" data-name="Layer 2"><g id="Layer_1-2" data-name="Layer 1"><path class="cls-1" d="M45.3,277.7H163.64v36.17H0V53.19H45.3Z"/><path class="cls-1" d="M194.25,69.84a23.09,23.09,0,0,1,6.36-16.65q6.34-6.61,18.17-6.62T237,53.19a22.92,22.92,0,0,1,6.45,16.65A22.39,22.39,0,0,1,237,86.23q-6.45,6.52-18.26,6.53t-18.17-6.53A22.56,22.56,0,0,1,194.25,69.84Zm46.19,244h-43.5V120.15h43.5Z"/><path class="cls-1" d="M328.17,120.15l1.25,22.38q21.49-25.95,56.4-26,60.51,0,61.59,69.29v128H403.9V188.37q0-18.45-8-27.31t-26.05-8.86q-26.31,0-39.2,23.81V313.87H287.17V120.15Z"/><path class="cls-1" d="M554.65,230.8l-19.34,19.87v63.2h-43.5v-275h43.5V197.5l13.61-17,53.53-60.34h52.28l-72,80.75,79.67,113H612.12Z"/><path class="cls-1" d="M764.83,317.45q-41.36,0-67-26.05T672.09,222v-5.37q0-29,11.19-51.83t31.42-35.54a83.12,83.12,0,0,1,45.12-12.71q39.57,0,61.14,25.25t21.57,71.43V230.8H716q2,24,16,37.95t35.36,14q29.89,0,48.7-24.17l23.45,22.38a78.33,78.33,0,0,1-31.06,26.94Q789,317.46,764.83,317.45Zm-5.19-166q-17.89,0-28.91,12.54t-14.06,34.91h82.9v-3.22q-1.44-21.84-11.64-33T759.64,151.48Z"/><path class="cls-1" d="M868.14,215.58q0-44.76,20.76-71.88t55.68-27.13q30.79,0,49.78,21.49V38.87h43.5v275H998.47l-2.14-20.05q-19.53,23.63-52.1,23.63-34,0-55.06-27.39T868.14,215.58Zm43.5,3.76q0,29.53,11.37,46.1T955.33,282q26.67,0,39-23.81V175.48q-12-23.28-38.68-23.28-21.12,0-32.58,16.74T911.64,219.34Z"/><rect class="cls-1" x="1081.82" width="356.32" height="356.32" rx="75.3"/><path class="cls-2" d="M1156.41,84.07a18.92,18.92,0,0,1,5.2-13.62q5.21-5.42,14.87-5.42t14.94,5.42a18.74,18.74,0,0,1,5.28,13.62,18.31,18.31,0,0,1-5.28,13.41q-5.26,5.34-14.94,5.34t-14.87-5.34A18.49,18.49,0,0,1,1156.41,84.07Zm37.8,199.66h-35.6V125.24h35.6Z"/><path class="cls-2" d="M1266,125.24l1,18.31q17.58-21.24,46.14-21.24,49.51,0,50.39,56.68V283.73H1328V181.05q0-15.09-6.52-22.34t-21.32-7.25q-21.52,0-32.08,19.48V283.73h-35.59V125.24Z"/></g></g></svg>