<?xml version="1.0" encoding="utf-8"?>
<!-- Svg Vector Icons : http://www.onlinewebfonts.com/icon -->
<!DOCTYPE svg PUBLIC "-//W3C//DTD SVG 1.1//EN" "http://www.w3.org/Graphics/SVG/1.1/DTD/svg11.dtd">
<svg version="1.1" xmlns="http://www.w3.org/2000/svg" xmlns:xlink="http://www.w3.org/1999/xlink" x="0px" y="0px" viewBox="0 0 1000 1000" enable-background="new 0 0 1000 1000" xml:space="preserve">
<metadata> Svg Vector Icons : http://www.onlinewebfonts.com/icon </metadata>
<g><path d="M500,990c-66.2,0-130.3-13-190.7-38.5c-58.3-24.7-110.8-60-155.8-105c-45-45-80.3-97.4-105-155.8C23,630.3,10,566.2,10,500c0-66.1,13-130.3,38.5-190.7c24.7-58.3,60-110.8,105-155.8c45-45,97.4-80.3,155.8-105C369.7,23,433.9,10,500,10c66.1,0,130.3,13,190.7,38.5c58.3,24.7,110.8,60,155.8,105c45,45,80.3,97.4,105,155.8C977,369.7,990,433.9,990,500c0,66.1-13,130.3-38.5,190.7c-24.7,58.3-60,110.8-105,155.8c-45,45-97.4,80.3-155.8,105C630.3,977,566.2,990,500,990z M500,11C230.4,11,11,230.4,11,500c0,269.6,219.4,489,489,489c269.6,0,489-219.4,489-489C989,230.4,769.6,11,500,11z"/><path d="M499.1,687.5L190.4,378.7l0.7-0.7l308.1,308.1l306-306l0.7,0.7L499.1,687.5z"/></g>
</svg>