<svg width="27" height="27" viewBox="0 0 27 27" fill="none" xmlns="http://www.w3.org/2000/svg">
<path d="M5.94141 27H0.84375V7.98047H5.94141V27ZM0.544922 3.05859C0.544922 2.29688 0.796875 1.66992 1.30078 1.17773C1.81641 0.685547 2.51367 0.439453 3.39258 0.439453C4.25977 0.439453 4.95117 0.685547 5.4668 1.17773C5.98242 1.66992 6.24023 2.29688 6.24023 3.05859C6.24023 3.83203 5.97656 4.46484 5.44922 4.95703C4.93359 5.44922 4.24805 5.69531 3.39258 5.69531C2.53711 5.69531 1.8457 5.44922 1.31836 4.95703C0.802734 4.46484 0.544922 3.83203 0.544922 3.05859ZM14.8184 7.98047L14.9766 10.1777C16.3359 8.47852 18.1582 7.62891 20.4434 7.62891C22.459 7.62891 23.959 8.2207 24.9434 9.4043C25.9277 10.5879 26.4316 12.3574 26.4551 14.7129V27H21.375V14.8359C21.375 13.7578 21.1406 12.9785 20.6719 12.498C20.2031 12.0059 19.4238 11.7598 18.334 11.7598C16.9043 11.7598 15.832 12.3691 15.1172 13.5879V27H10.0371V7.98047H14.8184Z" fill="white"/>
</svg>
