<svg width="20" height="20" viewBox="0 0 20 20" fill="none" xmlns="http://www.w3.org/2000/svg">
<path d="M13.9156 0C17.0243 0 19.0961 2.42887 19.0961 5.91408V14.0849C19.0961 17.5703 17.0242 20 13.9156 20H5.9983C2.89111 20 0.826904 17.5722 0.826904 14.0849V5.91408C0.826904 2.43059 2.89714 0 5.9983 0H13.9156ZM13.9156 1.50383H5.9983C3.67751 1.50383 2.19984 3.2387 2.19984 5.91408V14.0849C2.19984 16.7647 3.67206 18.4962 5.9983 18.4962H13.9156C16.2442 18.4962 17.7232 16.7618 17.7232 14.0849V5.91408C17.7232 3.23744 16.2444 1.50383 13.9156 1.50383ZM14.5662 10.1835L14.6852 10.3086L16.5854 12.4561C16.8492 12.7543 16.8424 13.2303 16.5702 13.5193C16.3227 13.7821 15.941 13.7998 15.6754 13.5768L15.5995 13.5027L13.6994 11.3553C13.3684 10.9814 12.8303 10.9779 12.4943 11.3269L12.4206 11.4137L10.3807 14.1312C9.65916 15.0939 8.36094 15.1971 7.52097 14.3903L7.40937 14.2747L6.59529 13.3648C6.38145 13.1217 6.04043 13.0987 5.80295 13.2949L5.72794 13.3684L4.32846 14.9855C4.06764 15.2869 3.63314 15.2996 3.35799 15.0139C3.10785 14.7542 3.07551 14.3372 3.26766 14.0372L3.33205 13.9509L4.73123 12.3341C5.46783 11.4819 6.68084 11.4365 7.4655 12.1967L7.57988 12.3167L8.38985 13.222C8.62662 13.4865 9.00611 13.4933 9.2508 13.2553L9.31988 13.1766L11.3599 10.4589C12.1704 9.37823 13.6299 9.26886 14.5662 10.1835ZM6.83076 4.64124C8.09589 4.64124 9.12265 5.76589 9.12265 7.15164C9.12265 8.53738 8.09589 9.66204 6.83076 9.66204C5.56569 9.66204 4.53979 8.53744 4.53979 7.15164C4.53979 5.76583 5.56569 4.64124 6.83076 4.64124ZM6.83076 6.14507C6.32418 6.14507 5.91272 6.59611 5.91272 7.15164C5.91272 7.70716 6.32418 8.1582 6.83076 8.1582C7.33764 8.1582 7.74972 7.70684 7.74972 7.15164C7.74972 6.59643 7.33764 6.14507 6.83076 6.14507Z" fill="#666666"/>
</svg>
