<svg width="20" height="20" viewBox="0 0 20 20" fill="none" xmlns="http://www.w3.org/2000/svg">
<path d="M13.9596 0C17.0608 0 19.1183 2.41665 19.1183 5.89317V14.1068C19.1183 17.5833 17.0608 20 13.9596 20H5.98758C2.88635 20 0.828857 17.5833 0.828857 14.1068V5.89317C0.828857 2.4199 2.89178 0 5.98758 0H13.9596ZM13.9596 1.39535H5.98758C3.6173 1.39535 2.10487 3.16949 2.10487 5.89317V14.1068C2.10487 16.8341 3.61226 18.6047 5.98758 18.6047H13.9596C16.3349 18.6047 17.8423 16.8341 17.8423 14.1068V5.89317C17.8423 3.16587 16.3349 1.39535 13.9596 1.39535ZM9.97359 5.88587C10.2966 5.88587 10.5635 6.14834 10.6058 6.48887L10.6116 6.58354L10.611 9.293L13.0927 9.29347C13.4451 9.29347 13.7307 9.60583 13.7307 9.99115C13.7307 10.3444 13.4907 10.6363 13.1793 10.6825L13.0927 10.6888L10.611 10.688L10.6116 13.3988C10.6116 13.7841 10.326 14.0964 9.97359 14.0964C9.6506 14.0964 9.38366 13.834 9.34141 13.4934L9.33559 13.3988L9.33529 10.688L6.85446 10.6888C6.5021 10.6888 6.21645 10.3765 6.21645 9.99115C6.21645 9.63794 6.45648 9.34604 6.76789 9.29984L6.85446 9.29347L9.33529 9.293L9.33559 6.58354C9.33559 6.19823 9.62123 5.88587 9.97359 5.88587Z" fill="#666666"/>
</svg>
