<?xml version="1.0" encoding="UTF-8"?>
<svg xmlns="http://www.w3.org/2000/svg" xmlns:xlink="http://www.w3.org/1999/xlink" width="40px" height="40px" viewBox="0 0 40 40" version="1.1">
<g id="surface1">
<path style="fill:none;stroke-width:30;stroke-linecap:butt;stroke-linejoin:miter;stroke:rgb(0%,0%,0%);stroke-opacity:1;stroke-miterlimit:4;" d="M 564.96126 299.999947 C 564.96126 446.383269 446.367443 564.944668 300.000171 564.944668 C 153.6329 564.944668 35.039083 446.383269 35.039083 299.999947 C 35.039083 153.616624 153.6329 34.933997 300.000171 34.933997 C 446.367443 34.933997 564.96126 153.616624 564.96126 299.999947 Z M 564.96126 299.999947 " transform="matrix(0.0666666,0,0,0.0644445,0,0.666666)"/>
<path style="fill:none;stroke-width:30;stroke-linecap:butt;stroke-linejoin:miter;stroke:rgb(0%,0%,0%);stroke-opacity:1;stroke-miterlimit:4;" d="M 414.961175 230.051146 C 414.961175 293.57484 363.574427 345.036306 300.000171 345.036306 C 236.543104 345.036306 185.039168 293.57484 185.039168 230.051146 C 185.039168 166.527452 236.543104 114.944757 300.000171 114.944757 C 363.574427 114.944757 414.961175 166.527452 414.961175 230.051146 Z M 414.961175 230.051146 " transform="matrix(0.0666666,0,0,0.0644445,0,0.666666)"/>
<path style="fill:none;stroke-width:30;stroke-linecap:butt;stroke-linejoin:miter;stroke:rgb(0%,0%,0%);stroke-opacity:1;stroke-miterlimit:4;" d="M 106.816467 481.35767 C 135.878984 399.528483 213.222778 345.036306 300.000171 345.036306 C 386.777565 345.036306 464.121359 399.528483 493.183876 481.35767 " transform="matrix(0.0666666,0,0,0.0644445,0,0.666666)"/>
</g>
</svg>
