<svg width="18" height="18" viewBox="0 0 18 18" fill="none" xmlns="http://www.w3.org/2000/svg">
<path d="M16.5812 16.2089C16.9135 16.2089 17.1828 16.498 17.1828 16.8545C17.1828 17.1813 16.9565 17.4514 16.6629 17.4941L16.5812 17.5H10.3053C9.9731 17.5 9.70378 17.211 9.70378 16.8545C9.70378 16.5277 9.93008 16.2576 10.2237 16.2148L10.3053 16.2089H16.5812ZM10.4773 1.41662C11.6162 0.194461 13.4634 0.194461 14.6023 1.41662L15.7846 2.6854C16.9235 3.90755 16.9235 5.88985 15.7846 7.112L6.89776 16.6486C6.3896 17.1939 5.70064 17.4999 4.98151 17.4999H1.34203C1.00393 17.4999 0.732243 17.201 0.740669 16.8383L0.832219 12.8975C0.85042 12.1526 1.13443 11.4425 1.62532 10.9157L10.4773 1.41662ZM9.78923 3.979L2.47604 11.8287C2.20317 12.1215 2.04503 12.5169 2.03492 12.9305L1.95853 16.2084L4.98151 16.2088C5.33722 16.2088 5.67929 16.0745 5.94929 15.8317L6.04705 15.7357L13.3965 7.849L9.78923 3.979ZM13.7516 2.32953C13.0825 1.61156 11.997 1.61156 11.328 2.32953L10.6406 3.066L14.2469 6.936L14.9339 6.19909C15.5658 5.52101 15.6009 4.44433 15.0392 3.72195L14.9339 3.59831L13.7516 2.32953Z" fill="#666666"/>
</svg>
