<svg width="20" height="16" viewBox="0 0 20 16" fill="currentColor" xmlns="http://www.w3.org/2000/svg">
<path d="M10.4852 0.499817C12.6978 0.499817 14.2381 2.03379 14.4022 4.28415L16.8203 3.2019C17.8666 2.73455 19.0082 3.52863 19.0913 4.7353L19.0961 4.87632V11.5153C19.0961 12.7526 17.9932 13.6087 16.9411 13.237L16.82 13.1886L14.4022 12.1062C14.2377 14.3551 12.6942 15.8908 10.4852 15.8908H4.75869C2.41556 15.8908 0.827148 14.1717 0.827148 11.7028V4.68782C0.827148 2.21891 2.41556 0.499817 4.75869 0.499817H10.4852ZM10.4852 1.99982H4.75869C3.16881 1.99982 2.19734 3.0512 2.19734 4.68782V11.7028C2.19734 13.3394 3.16881 14.3908 4.75869 14.3908H10.4852C12.0711 14.3908 13.0465 13.3367 13.0465 11.7028L13.0463 11.0173C13.0461 11.0066 13.046 10.9959 13.0461 10.9852L13.0465 4.68782C13.0465 3.0516 12.0745 1.99982 10.4852 1.99982ZM17.4003 4.57141L17.3384 4.59056L14.4167 5.89682V10.4928L17.338 11.7999C17.5029 11.8736 17.6811 11.7642 17.7187 11.5854L17.7259 11.5153V4.87632C17.7259 4.68152 17.5657 4.54203 17.4003 4.57141Z" fill="#666666"/>
</svg>
